<?xml version="1.0" standalone="no"?><!DOCTYPE svg PUBLIC "-//W3C//DTD SVG 1.1//EN" "http://www.w3.org/Graphics/SVG/1.1/DTD/svg11.dtd"><svg t="1607328181350" class="icon" viewBox="0 0 1184 1024" version="1.1" xmlns="http://www.w3.org/2000/svg" p-id="7898" xmlns:xlink="http://www.w3.org/1999/xlink" width="231.25" height="200"><defs><style type="text/css"></style></defs><path d="M720.03334941 660.39789307v-0.55693477l47.66190996-301.7415164v-4.26494883l-0.55693476-2.52086396-1.12852617-3.1510793-1.68546094-2.56483213-1.70011758-2.25705235-2.82864375-1.46561836-3.1217669-2.25705234-3.15107929-0.29312403h-2.85795615l-2.79933135 0.29312403-3.1510793 1.7001167-3.69335829 1.9932416-237.88452305 192.18654053-0.57159053 0.57159141c-3.40023428 2.85795615-6.81512519 5.42278828-10.47917197 8.51524276l-0.86471455 1.15783859a45.96179326 45.96179326 0 0 0-7.95830802 8.51524276 97.66881036 97.66881036 0 0 0-9.07217841 10.25932852c-2.25705234 3.6933583-4.55807285 7.3280918-7.3280918 12.17928955-18.15901172 30.96851661-22.68777305 68.72284688-13.63025127 103.34075274 1.72942998 4.52876045 2.85795615 8.79371016 3.98648233 12.5017251 1.46561836 3.6933583 3.40023428 7.3280918 5.1150085 11.91547792 0.55693477 0.57159141 6.24353467 11.63700967 6.24353378 11.63700967a139.07252988 139.07252988 0 0 0 36.33268096 38.83888741 74.9517249 74.9517249 0 0 0 11.94478945 7.09359345 49.93361894 49.93361894 0 0 0 12.4724127 6.8444376 56.9685876 56.9685876 0 0 0 12.50172509 4.82188447c51.09145752 17.32360957 108.70491709 1.46561836 144.75912891-38.88285557a128.97441914 128.97441914 0 0 0 30.58745625-59.65066933l0.57159141-1.67080518c0.86471455-3.98648232 1.70011758-8.25143115 2.28636475-11.94478945v-1.15783857zM270.95321533 893.76831143c15.60883623 15.03724482 15.60883623 40.87609717 0 56.20646513a39.99672597 39.99672597 0 0 1-56.5142458 0 522.11189883 522.11189883 0 0 1-152.42431377-368.19265429 523.47492422 523.47492422 0 0 1 152.42431377-367.59175049A518.27197852 518.27197852 0 0 1 582.0600333 62.00055722a528.39940166 528.39940166 0 0 1 199.32410215 39.19063536 522.09724219 522.09724219 0 0 1 281.55995069 282.16085449l0.83540302 1.9932416a519.62034727 519.62034727 0 0 1-113.81992559 564.62948789c-36.91892724 36.91892724-93.11073662-19.59531768-56.48493251-56.20646513a441.82532285 441.82532285 0 0 0 96.81875068-478.02609756l-1.1578377-1.96392832a440.08123711 440.08123711 0 0 0-813.59408672 0 441.15113848 441.15113848 0 0 0 95.39710137 480.01933828z m357.61088936-325.36728458a87.49741816 87.49741816 0 0 1 40.9200662 53.99338184 89.08028614 89.08028614 0 0 1-8.48593125 66.42182549 87.46810576 87.46810576 0 0 1-53.36316562 40.87609717c-21.32474766 6.8444376-47.99900303 2.02255312-67.0227293-8.79371016a87.73191739 87.73191739 0 0 1-40.87609716-53.62697725 85.98783164 85.98783164 0 0 1 9.08683418-66.42182636 85.10846045 85.10846045 0 0 1 52.76226181-40.90540958h0.26381163c21.88168242-5.65728662 46.00576143-3.6933583 66.72960615 8.51524278z m-5.39347588 65.86489073A39.19063623 39.19063623 0 0 0 604.71849307 610.14183857a39.92344541 39.92344541 0 0 0-30.36761279-4.2649497h-0.30777979a42.97193174 42.97193174 0 0 0-23.69904961 18.78922793 40.52434834 40.52434834 0 0 0-4.39685508 30.64608106 39.76222675 39.76222675 0 0 0 19.05303867 23.84561073 41.41837617 41.41837617 0 0 0 29.79602227 4.52876133h0.30777979a43.66077187 43.66077187 0 0 0 23.81629922-19.05303955 38.44317041 38.44317041 0 0 0 4.2649497-29.83999043v-0.55693476z m192.1865414-270.55315722l-48.2188456 303.52957118a184.55066895 184.55066895 0 0 1-23.33264502 69.82206065c-2.85795615 4.52876045-6.25819043 9.95154873-9.67308135 15.06655723-3.98648232 5.36416347-7.94365137 9.90758057-11.91547793 14.65618359-43.63145947 49.47927714-113.46817676 72.51879815-178.2045413 57.12980537a121.27992276 121.27992276 0 0 1-17.58742032-4.52876133c-5.71591143-2.25705234-11.37319893-4.25029307-17.03048554-6.8151252-6.25819043-3.1217669-11.91547793-5.68659903-16.76667481-8.51524277s-9.93689297-6.22887803-15.60883623-10.25932851a181.89789961 181.89789961 0 0 1-64.72170791-84.61015049c-2.25705234-5.65728662-3.98648232-11.60769815-5.6572875-16.7373624-1.17249434-5.39347588-2.56483213-11.72494688-3.42954668-17.32360958a184.66791855 184.66791855 0 0 1 32.39016592-138.26643925c3.40023428-4.82188448 7.3280918-9.64376895 11.34388652-14.4656543 3.98648232-3.95716992 7.958308-8.22211963 11.72494775-12.47241182l1.12852617-0.5715914c4.25029307-3.40023428 8.79371016-7.94365137 13.87940625-11.37319893l236.97583858-192.40638398c1.46561836-0.83540214 3.1217669-1.96392832 4.26494971-2.53551973l6.78581367-4.25029307a13.73284424 13.73284424 0 0 1 4.55807285-1.99324072l6.81512519-2.53551972a15.52089903 15.52089903 0 0 0 4.52876133-1.72942998l7.09359258-0.83540303c1.99324073 0 3.1510793-0.29312402 4.82188448-0.29312314l6.2581913 0.29312314a43.13314951 43.13314951 0 0 1 6.22887803 0.29312402l7.32809179 2.28636475a9.24805195 9.24805195 0 0 1 4.52876046 1.46561836l8.04624521 3.04848632a24.72498281 24.72498281 0 0 1 3.95716992 2.82864375l6.52200206 3.95716905a10.47917197 10.47917197 0 0 0 3.69335829 3.40023515l5.12966426 5.71591143a12.23791347 12.23791347 0 0 1 2.79933135 3.98648232l3.98648144 5.95041065a34.88171748 34.88171748 0 0 1 2.28636475 4.82188447l2.55017637 7.15221826a18.59869776 18.59869776 0 0 1 1.15783857 4.82188448l1.46561836 7.32809179v15.00793243z" p-id="7899"></path></svg>