<?xml version="1.0" standalone="no"?><!DOCTYPE svg PUBLIC "-//W3C//DTD SVG 1.1//EN" "http://www.w3.org/Graphics/SVG/1.1/DTD/svg11.dtd"><svg t="1607330082651" class="icon" viewBox="0 0 1024 1024" version="1.1" xmlns="http://www.w3.org/2000/svg" p-id="9285" xmlns:xlink="http://www.w3.org/1999/xlink" width="200" height="200"><defs><style type="text/css"></style></defs><path d="M266.24 450.56a40.96 40.96 0 0 1 0-81.92h286.72a40.96 40.96 0 0 1 0 81.92H266.24z m485.13 0a40.96 40.96 0 1 1 40.96-40.96 40.96 40.96 0 0 1-40.96 40.96z m6.39 204.8H266.24a40.96 40.96 0 0 1 0-81.92h491.52a40.96 40.96 0 0 1 0 81.92z m225.28 40.96a40.96 40.96 0 0 1-40.96-40.96V286.72A122.88 122.88 0 0 0 819.2 163.84H204.8A122.88 122.88 0 0 0 81.92 286.72v450.56A122.88 122.88 0 0 0 204.8 860.16h737.28a40.96 40.96 0 0 1 0 81.92H204.8A204.8 204.8 0 0 1 0 737.28V286.72a204.8 204.8 0 0 1 204.8-204.8h614.4a204.8 204.8 0 0 1 204.8 204.8v368.64a40.96 40.96 0 0 1-40.96 40.96z" p-id="9286"></path></svg>