<?xml version="1.0" standalone="no"?><!DOCTYPE svg PUBLIC "-//W3C//DTD SVG 1.1//EN" "http://www.w3.org/Graphics/SVG/1.1/DTD/svg11.dtd"><svg t="1607403579633" class="icon" viewBox="0 0 1024 1024" version="1.1" xmlns="http://www.w3.org/2000/svg" p-id="5461" xmlns:xlink="http://www.w3.org/1999/xlink" width="200" height="200"><defs><style type="text/css"></style></defs><path d="M0.43814 511.804822a511.560555 511.560555 0 1 0 255.772782-443.252457A511.832893 511.832893 0 0 0 0.43814 511.804822z m0 0" fill="#FFFFFF" p-id="5462"></path><path d="M295.195221 463.402378s-30.465619-160.23339 32.105893-182.731251c0 0-17.252233-55.733082 61.007442-63.063719 0 0 51.058364-67.190013 240.810437-6.471149 0 0 31.036529 13.549436 49.769131 43.660267 0 0 48.528619 29.822252 52.978471 46.89709s22.340455 92.487458 3.211838 116.430708c0 0 3.56163 32.288284-25.688462 46.895841-31.377576 15.678169-124.184844 12.804879-414.19475-1.617787z m0 0" fill="#6A4607" p-id="5463"></path><path d="M879.985945 869.167146S796.454407 682.703116 595.277883 689.968792c0 0-24.191853 168.657127-88.880854 168.657127s-93.083353-134.708581-93.395668-168.657127c0 0-140.528867-22.565321-271.407228 174.126372 0 0 113.401262 158.393236 382.272499 159.904836 181.353321 1.011898 312.911277-112.113278 348.542572-148.661527" fill="#0681F8" p-id="5464"></path><path d="M591.342725 682.736846s45.517911 7.647948 87.404233-108.395491c0 0 108.712802-56.746229 34.656875-111.402451 0 0-23.126237-84.92321-88.907089-127.965094s-137.514411 6.419929-141.658195 42.161158c0 0-138.292698-9.433136-186.861293 79.786267 0 0-79.42773 42.733318 30.138313 109.900845 0 0 46.582278 104.958786 90.414942 114.414409 0 0-9.682987 112.907805 79.873715 112.907805s94.943496-86.347362 94.943496-111.401202z m0 0" fill="#EFD7B5" p-id="5465"></path></svg>