<?xml version="1.0" standalone="no"?><!DOCTYPE svg PUBLIC "-//W3C//DTD SVG 1.1//EN" "http://www.w3.org/Graphics/SVG/1.1/DTD/svg11.dtd"><svg t="1607403451804" class="icon" viewBox="0 0 1024 1024" version="1.1" xmlns="http://www.w3.org/2000/svg" p-id="3874" xmlns:xlink="http://www.w3.org/1999/xlink" width="200" height="200"><defs><style type="text/css"></style></defs><path d="M512 1004.544c268.8 0 492.544-224.256 492.544-492.544S780.8 18.944 512 18.944 19.456 243.2 19.456 512s223.744 492.544 492.544 492.544z m0-934.4c243.2 0 441.344 198.144 441.344 441.856s-198.656 441.344-441.344 441.344-441.344-198.144-441.344-441.344S268.8 70.144 512 70.144z" fill="" p-id="3875"></path><path d="M512 486.912c-18.432 0-32.256-13.824-32.256-32.256V210.944c0-18.432 13.824-32.256 32.256-32.256s32.256 13.824 32.256 32.256v243.2c0 18.432-13.824 32.768-32.256 32.768z" fill="" p-id="3876"></path><path d="M819.2 509.44c-1.024 169.984-138.752 307.712-307.712 307.712S204.8 679.424 204.8 510.464c0-104.96 52.736-200.704 140.8-258.048 13.824-9.216 31.744-5.12 40.96 9.216 9.216 13.824 5.12 31.744-9.216 40.96-71.168 46.08-113.152 123.904-113.152 207.872 0 135.68 111.104 246.784 246.784 246.784S757.76 646.144 757.76 510.464c0-82.944-41.984-160.768-113.152-207.872-13.824-9.216-17.92-28.16-9.216-41.984 9.216-13.824 28.16-17.92 41.984-9.216C766.464 309.76 819.2 405.504 819.2 509.44" fill="" p-id="3877"></path></svg>