<?xml version="1.0" standalone="no"?><!DOCTYPE svg PUBLIC "-//W3C//DTD SVG 1.1//EN" "http://www.w3.org/Graphics/SVG/1.1/DTD/svg11.dtd"><svg t="1607330162496" class="icon" viewBox="0 0 1024 1024" version="1.1" xmlns="http://www.w3.org/2000/svg" p-id="10123" xmlns:xlink="http://www.w3.org/1999/xlink" width="200" height="200"><defs><style type="text/css"></style></defs><path d="M512 544.495a168.619 168.619 0 0 1-168.346-168.482v-116.6a168.346 168.346 0 0 1 336.828 0v116.054A168.619 168.619 0 0 1 512 544.495z m0-398.268a113.869 113.869 0 0 0-113.732 113.186v116.054a113.732 113.732 0 0 0 227.6 0V259.413A113.869 113.869 0 0 0 512 146.227z" p-id="10124"></path><path d="M456.84 296.277a276.617 276.617 0 0 1-95.573-17.066l18.705-51.337a222.276 222.276 0 0 0 76.186 13.653 221.184 221.184 0 0 0 159.744-68.266l39.458 38.775a275.388 275.388 0 0 1-198.52 84.241zM814.558 932.386H209.442a37.137 37.137 0 0 1-37-37 327.68 327.68 0 0 1 326.86-326.998h25.26a327.68 327.68 0 0 1 327.133 326.998 37.137 37.137 0 0 1-37.137 37z m-587.093-54.613h568.934a273.067 273.067 0 0 0-271.701-254.771h-25.396a273.067 273.067 0 0 0-271.7 254.77z" p-id="10125"></path><path d="M512 757.214a27.307 27.307 0 0 1-22.801-12.288l-83.012-125.747a27.307 27.307 0 1 1 45.602-30.038L512 680.346l60.211-91.205a27.307 27.307 0 1 1 45.602 30.038l-83.012 125.747A27.307 27.307 0 0 1 512 757.214z" p-id="10126"></path></svg>